<?xml version="1.0" encoding="utf-8"?>
<!-- Generator: Adobe Illustrator 24.2.0, SVG Export Plug-In . SVG Version: 6.00 Build 0)  -->
<svg version="1.1" id="Layer_1" xmlns="http://www.w3.org/2000/svg" xmlns:xlink="http://www.w3.org/1999/xlink" x="0px" y="0px"
	 viewBox="0 0 960 640" style="enable-background:new 0 0 960 640;" xml:space="preserve">
<style type="text/css">
	.st0{fill:#1C4CA0;}
	.st1{fill:#FEFEFE;}
	.st2{fill:#D61C2A;}
</style>
<g>
	<g>
		<path class="st0" d="M0,0h960v640H0V0z M129.5,150.9c-7.3,2.3-13.6,9.2-13.3,17.1c0,84.4,0,168.7,0,253.1
			c-0.3,9.9,3.9,19.4,9.7,27.2c7,9.2,17.9,13.8,27.6,19.5c34.5,19.9,68.9,39.7,103.4,59.6c6.1,3.4,12.9,6.3,20,6.4
			c5,0,10.2,0.4,15.1-1.2c7.9-2.2,14.9-6.6,21.8-10.7c33.6-19.4,67.1-38.7,100.7-58.1c6.9-3.9,14.1-7.7,19.3-13.9
			c6.7-8,11.2-18.3,10.8-28.9c0-84.3,0-168.7,0-253c0.5-8.4-6.8-15.8-14.7-17.4c-5.9-0.9-11.5,1.4-17.1,2.8
			c-41.8,11.2-83.7,22.2-125.5,33.4c-9.4,2.4-18.7-1.5-27.7-3.8c-40.3-10.9-80.7-21.3-120.9-32.3
			C135.7,150.3,132.5,150.1,129.5,150.9z M625.3,268.6c-0.6,2.1-0.8,4.2-0.8,6.3c0,46,0,92,0,137.9c27.8,0.7,55.6,0.1,83.4,0.3
			c3.3,0.1,6.6-0.3,9.9-0.7c-0.8-4.7,0.5-9.7-1.5-14.2c-2.3-5.1-7.9-7.9-13.3-7.8c-16.5,0.1-33-0.1-49.4,0.1
			c-0.1-40.6,0.2-81.3-0.2-121.9C644.1,268.8,634.7,268.9,625.3,268.6z M726.7,268.8c-0.2,31.4,0,62.8-0.1,94.3
			c-0.2,6.7,1,13.5,3,19.9c3.8,12.3,13.9,21.9,25.6,26.7c9.3,4.3,19.7,5.2,29.8,5.7c5.3-0.7,10.7-0.4,15.9-1.7
			c12.5-2.4,24.9-8.5,32.7-18.9c6.5-8.7,9.2-19.8,8.9-30.6c0-31.5,0-63,0-94.6c-5.2,0.1-10.4,0-15.6,0c-7.3-0.7-13.8,6.4-13.5,13.5
			c0,28,0,56.1,0,84.1c0,4-1.2,7.9-2.7,11.5c-3.6,8-12.1,13.2-20.8,13.9c-6.9,0.3-14.2,0.7-20.5-2.7c-8.4-3.7-13.4-12.8-13.3-21.8
			c-0.1-27.6,0-55.3-0.1-82.9c0-5.6-2.1-11.8-7.6-14.3C741.7,267.8,734,269.1,726.7,268.8z M481.7,269.5c5,15.6,10.4,31.1,15.8,46.7
			c10.7,32.3,22,64.3,32.6,96.6c10,0.8,20.1,0.4,30.1-0.3c2.5-5.5,3.8-11.4,5.9-17c14.3-42,28.6-84,42.9-126c-8,0.1-16-0.3-24,0.2
			c-4.5,1.3-8,5.2-9.4,9.6c-8.8,30.1-17.9,60.1-26.7,90.1c-1,3.9-2.5,7.8-2.7,11.9c-0.3,0.2-1,0.5-1.3,0.7
			c-1.6-8.8-4.8-17.2-7.1-25.8c-7.4-25.4-15.1-50.7-22.4-76c-1.4-5.5-6.2-10.8-12.2-10.6C496,269.3,488.8,269.5,481.7,269.5z"/>
	</g>
</g>
<g>
	<g>
		<path class="st1" d="M129.5,150.9c3-0.7,6.2-0.6,9.2-0.1c40.3,10.9,80.7,21.4,120.9,32.3c9,2.3,18.3,6.2,27.7,3.8
			c41.8-11.3,83.7-22.2,125.5-33.4c5.6-1.4,11.2-3.8,17.1-2.8c8,1.6,15.2,8.9,14.7,17.4c0,84.3,0,168.7,0,253
			c0.4,10.6-4.1,20.9-10.8,28.9c-5.1,6.2-12.4,10-19.3,13.9c-33.6,19.4-67.1,38.7-100.7,58.1c-7,4.1-14,8.5-21.8,10.7
			c-4.9,1.6-10.1,1.2-15.1,1.2c-7.2,0-13.9-2.9-20-6.4c-34.5-19.8-68.9-39.7-103.4-59.6c-9.6-5.7-20.6-10.3-27.6-19.5
			c-5.8-7.8-10-17.3-9.7-27.2c0-84.4,0-168.7,0-253.1C115.9,160.1,122.3,153.1,129.5,150.9z M131.3,160c-2.4,0.9-4.7,2.6-5.6,5.1
			c-0.5,3.9-0.3,7.9-0.3,11.9c0,81,0,162,0,243c-0.6,13,7.2,25.7,18.5,31.8c36.3,21,72.7,41.9,109.1,62.9c5.6,3.1,10.9,6.9,17.2,8.7
			c4.5,1.5,9.3,1.3,13.9,1.2c5.7,0,11-2.6,15.9-5.3c37.4-21.4,74.6-43,111.9-64.5c5.1-3,10.6-5.7,14.6-10.3
			c5.5-6.5,9.5-14.8,9.2-23.4c0-84.3,0.1-168.6,0-252.8c0.4-5.9-6.3-10-11.6-8.3c-41.6,10.9-83,22.2-124.6,33.1
			c-6.4,1.6-12.7,4.1-19.4,3.7c-4.6,0.2-9-1.3-13.5-2.4c-43-11.4-86.1-22.8-129.1-34.3C135.4,159.5,133.3,159.3,131.3,160z"/>
	</g>
	<path class="st1" d="M625.3,268.6c9.4,0.3,18.8,0.1,28.2,0.1c0.3,40.6,0,81.3,0.2,121.9c16.5-0.2,33,0,49.4-0.1
		c5.4-0.1,11.1,2.7,13.3,7.8c2,4.5,0.7,9.5,1.5,14.2c-3.3,0.4-6.6,0.8-9.9,0.7c-27.8-0.2-55.6,0.3-83.4-0.3c0-46,0-92,0-137.9
		C624.5,272.8,624.7,270.7,625.3,268.6z"/>
	<path class="st1" d="M726.7,268.8c7.3,0.4,15-1,21.9,1.9c5.5,2.5,7.6,8.7,7.6,14.3c0.1,27.6-0.1,55.3,0.1,82.9
		c-0.2,9,4.9,18.1,13.3,21.8c6.3,3.3,13.6,3,20.5,2.7c8.6-0.7,17.1-5.8,20.8-13.9c1.5-3.6,2.7-7.5,2.7-11.5c0-28,0-56.1,0-84.1
		c-0.3-7.1,6.2-14.3,13.5-13.5c5.2,0,10.4,0.1,15.6,0c0,31.5,0,63.1,0,94.6c0.3,10.8-2.4,21.9-8.9,30.6
		c-7.8,10.4-20.2,16.5-32.7,18.9c-5.2,1.3-10.6,1-15.9,1.7c-10.1-0.5-20.5-1.4-29.8-5.7c-11.7-4.8-21.8-14.4-25.6-26.7
		c-2-6.4-3.2-13.2-3-19.9C726.7,331.6,726.5,300.2,726.7,268.8z"/>
	<path class="st1" d="M481.7,269.5c7.1,0,14.2-0.1,21.3,0c6-0.2,10.8,5.1,12.2,10.6c7.3,25.4,15.1,50.7,22.4,76
		c2.3,8.6,5.5,17,7.1,25.8c0.3-0.2,1-0.5,1.3-0.7c0.2-4.1,1.7-8,2.7-11.9c8.8-30.1,17.9-60.1,26.7-90.1c1.4-4.4,4.9-8.3,9.4-9.6
		c8-0.5,16-0.1,24-0.2c-14.3,42-28.5,84-42.9,126c-2.2,5.6-3.5,11.5-5.9,17c-10,0.6-20.1,1-30.1,0.3c-10.6-32.3-21.9-64.3-32.6-96.6
		C492.1,300.6,486.7,285.1,481.7,269.5z"/>
	<path class="st1" d="M154,270.9c1.7,0.5,3.4,1.2,5,2.1c15.9,9.2,31.9,18.2,47.8,27.4c3.5,1.8,5.4,5.3,7.2,8.7
		c4.1,7.9,9.1,15.2,13,23.1c-14.6-7.5-28.4-16.2-42.7-24.2c-3.4-2-6.9-3.7-9.9-6.2c-5.1-4.1-8.9-9.6-11.9-15.3
		C159.6,281.2,156.2,276.4,154,270.9z"/>
	<path class="st1" d="M338.4,287.9c20.3-5.5,40.6-10.9,61-16.2c0.8-0.1,2.4-0.3,3.2-0.4c-1.1,1.4-2.3,2.8-3.9,3.7
		c-20.2,11.4-40.1,23.1-60.2,34.6c-13.1,7.6-24.5,18.4-32,31.7c-6.7,11.8-13.7,23.3-20.2,35.2c-0.5,0-1.4,0.1-1.8,0.2
		c-2.7-5.4-6.2-10.4-8.9-15.8c-0.9-2.8,1.4-5.2,2.6-7.5c3.9-6.5,7.5-13.1,11.4-19.6c3.9-6.9,7.6-14,12.6-20.1
		c-10.1-2.6-20.3-5.1-30.3-8.3c0.9-2.8,1.8-5.6,2.6-8.5c2.9,0.7,5.7,1.7,8.7,1.9c0.7-2.7,1.5-5.4,2.4-8.1c2.9,0.6,5.7,1.3,8.6,1.9
		c0.8-2.8,1.6-5.7,2.4-8.5c8.5,1.6,16.6,5.3,25.3,5.4C327.5,289.6,333.1,289.5,338.4,287.9z"/>
	<path class="st1" d="M333.1,318.1c6.4-4.2,12.9-8,19.8-11.3c-7.2,7.8-15.1,14.9-21.5,23.4c-6.9,8.5-12.1,18.1-17.6,27.5
		c-10.7,19.2-22.3,38-32.8,57.3c-2.4-3.2-4.5-6.7-6.4-10.3c-14.9-25.8-29.9-51.5-44.7-77.3c-3.5-6.6-8-12.6-10.9-19.5
		c5.7,1.9,10.6,5.6,15.8,8.5c4.8,2.6,9.6,5.4,13.5,9.3c4,3.6,6.5,8.4,9.1,13c8.9,16.1,18.3,32,27.1,48.3c1.8-2.5,3.6-5,5.1-7.7
		c6.5-11.9,13.7-23.5,20.3-35.4C315.6,333.8,323.5,324.8,333.1,318.1z"/>
	<path class="st1" d="M190.9,317.3c12.9,6.4,25.1,14.3,37.8,21.2c4.2,2,6.1,6.6,8.3,10.4c3.9,7,8.5,13.7,11.7,21
		c-6.4-2.3-11.9-6.4-17.8-9.6c-6.6-4.1-13.8-7.4-20.1-12c-6.2-4.4-9.6-11.5-13.3-17.9C195.1,326.1,192,322.2,190.9,317.3z"/>
	<path class="st1" d="M227.1,363.9c8.5,3.5,15.9,9,24.1,13.1c4.3,2,6,6.6,8.3,10.4c3.8,7,8.3,13.7,11.5,21c-5.8-2.3-11-5.8-16.4-8.9
		c-3.7-2.2-7.5-4.4-10.5-7.6c-4.1-4.1-6.7-9.5-9.7-14.5C231.8,373,228.9,368.7,227.1,363.9z"/>
</g>
<g>
	<g>
		<path class="st2" d="M131.3,160c2-0.7,4.1-0.5,6.1,0c43,11.5,86.1,22.9,129.1,34.3c4.4,1.1,8.8,2.6,13.5,2.4
			c6.7,0.4,13-2.1,19.4-3.7c41.6-10.9,83-22.2,124.6-33.1c5.4-1.7,12.1,2.4,11.6,8.3c0.1,84.3,0,168.5,0,252.8
			c0.3,8.7-3.7,17-9.2,23.4c-3.9,4.6-9.4,7.3-14.6,10.3c-37.3,21.6-74.5,43.1-111.9,64.5c-4.9,2.7-10.2,5.3-15.9,5.3
			c-4.6,0.1-9.4,0.3-13.9-1.2c-6.2-1.8-11.6-5.5-17.2-8.7c-36.4-21-72.7-41.9-109.1-62.9c-11.4-6.1-19.2-18.8-18.5-31.8
			c0-81,0-162,0-243c0.1-4-0.2-8,0.3-11.9C126.6,162.6,128.9,160.9,131.3,160z M154,270.9c2.2,5.5,5.7,10.3,8.4,15.5
			c3.1,5.7,6.9,11.2,11.9,15.3c3,2.5,6.6,4.3,9.9,6.2c14.3,8,28.2,16.7,42.7,24.2c-4-7.9-8.9-15.3-13-23.1c-1.8-3.3-3.7-6.9-7.2-8.7
			c-15.9-9.2-31.9-18.2-47.8-27.4C157.4,272,155.7,271.4,154,270.9z M338.4,287.9c-5.3,1.6-10.9,1.7-16.4,1.6
			c-8.7,0-16.8-3.8-25.3-5.4c-0.8,2.8-1.6,5.7-2.4,8.5c-2.9-0.6-5.7-1.3-8.6-1.9c-0.9,2.7-1.8,5.3-2.4,8.1c-3-0.2-5.8-1.2-8.7-1.9
			c-0.8,2.8-1.7,5.7-2.6,8.5c10,3.2,20.1,5.6,30.3,8.3c-5,6.2-8.6,13.3-12.6,20.1c-3.9,6.5-7.5,13.1-11.4,19.6
			c-1.2,2.3-3.5,4.7-2.6,7.5c2.7,5.4,6.2,10.4,8.9,15.8c0.5-0.1,1.4-0.2,1.8-0.2c6.4-11.9,13.5-23.5,20.2-35.2
			c7.5-13.2,18.9-24.1,32-31.7c20.1-11.5,40.1-23.2,60.2-34.6c1.6-0.9,2.8-2.3,3.9-3.7c-0.8,0.1-2.4,0.3-3.2,0.4
			C379,277,358.7,282.4,338.4,287.9z M333.1,318.1c-9.6,6.6-17.5,15.6-23.1,25.8c-6.7,11.9-13.8,23.5-20.3,35.4
			c-1.5,2.7-3.3,5.2-5.1,7.7c-8.8-16.2-18.2-32.1-27.1-48.3c-2.6-4.6-5.2-9.4-9.1-13c-3.9-3.9-8.7-6.7-13.5-9.3
			c-5.3-2.9-10.1-6.6-15.8-8.5c2.9,6.9,7.4,12.9,10.9,19.5c14.9,25.8,29.8,51.5,44.7,77.3c1.9,3.6,4,7,6.4,10.3
			c10.5-19.3,22.1-38,32.8-57.3c5.5-9.4,10.7-19.1,17.6-27.5c6.4-8.5,14.4-15.6,21.5-23.4C346,310.2,339.4,314,333.1,318.1z
			 M190.9,317.3c1.1,4.9,4.2,8.8,6.6,13.1c3.8,6.4,7.1,13.4,13.3,17.9c6.3,4.6,13.4,7.9,20.1,12c5.9,3.2,11.5,7.3,17.8,9.6
			c-3.3-7.4-7.8-14-11.7-21c-2.3-3.8-4.1-8.3-8.3-10.4C215.9,331.6,203.8,323.7,190.9,317.3z M227.1,363.9c1.9,4.8,4.7,9.1,7.3,13.6
			c2.9,5,5.5,10.3,9.7,14.5c3,3.2,6.8,5.4,10.5,7.6c5.4,3.1,10.6,6.6,16.4,8.9c-3.2-7.3-7.7-14-11.5-21c-2.3-3.8-4-8.4-8.3-10.4
			C243,372.9,235.5,367.4,227.1,363.9z"/>
	</g>
</g>
<image style="overflow:visible;" width="958" height="749" xlink:href="A8CF3F02.jpg"  transform="matrix(1 0 0 1 995 -54)">
</image>
</svg>
